<svg width="25" height="22" viewBox="0 0 25 22" fill="none" xmlns="http://www.w3.org/2000/svg">
<path d="M1.5 4.2C1.5 3.07989 1.5 2.51984 1.73979 2.09202C1.95071 1.71569 2.28726 1.40973 2.70122 1.21799C3.17183 1 3.78788 1 5.02 1H19.98C21.2121 1 21.8282 1 22.2988 1.21799C22.7127 1.40973 23.0493 1.71569 23.2602 2.09202C23.5 2.51984 23.5 3.0799 23.5 4.2V5.8C23.5 6.92011 23.5 7.48016 23.2602 7.90798C23.0493 8.28431 22.7127 8.59027 22.2988 8.78201C21.8282 9 21.2121 9 19.98 9H5.02C3.78788 9 3.17183 9 2.70122 8.78201C2.28726 8.59027 1.95071 8.28431 1.73979 7.90798C1.5 7.48016 1.5 6.92011 1.5 5.8V4.2Z" fill="#B0B340"/>
<path d="M1.5 16.2C1.5 15.0799 1.5 14.5198 1.73979 14.092C1.95071 13.7157 2.28726 13.4097 2.70122 13.218C3.17183 13 3.78788 13 5.02 13H19.98C21.2121 13 21.8282 13 22.2988 13.218C22.7127 13.4097 23.0493 13.7157 23.2602 14.092C23.5 14.5198 23.5 15.0799 23.5 16.2V17.8C23.5 18.9201 23.5 19.4802 23.2602 19.908C23.0493 20.2843 22.7127 20.5903 22.2988 20.782C21.8282 21 21.2121 21 19.98 21H5.02C3.78788 21 3.17183 21 2.70122 20.782C2.28726 20.5903 1.95071 20.2843 1.73979 19.908C1.5 19.4802 1.5 18.9201 1.5 17.8V16.2Z" fill="#B0B340"/>
<path d="M5.9 5H5.911M5.9 17H5.911M5.02 9H19.98C21.2121 9 21.8282 9 22.2988 8.78201C22.7127 8.59027 23.0493 8.28431 23.2602 7.90798C23.5 7.48016 23.5 6.92011 23.5 5.8V4.2C23.5 3.0799 23.5 2.51984 23.2602 2.09202C23.0493 1.71569 22.7127 1.40973 22.2988 1.21799C21.8282 1 21.2121 1 19.98 1H5.02C3.78788 1 3.17183 1 2.70122 1.21799C2.28726 1.40973 1.95071 1.71569 1.73979 2.09202C1.5 2.51984 1.5 3.07989 1.5 4.2V5.8C1.5 6.92011 1.5 7.48016 1.73979 7.90798C1.95071 8.28431 2.28726 8.59027 2.70122 8.78201C3.17183 9 3.78788 9 5.02 9ZM5.02 21H19.98C21.2121 21 21.8282 21 22.2988 20.782C22.7127 20.5903 23.0493 20.2843 23.2602 19.908C23.5 19.4802 23.5 18.9201 23.5 17.8V16.2C23.5 15.0799 23.5 14.5198 23.2602 14.092C23.0493 13.7157 22.7127 13.4097 22.2988 13.218C21.8282 13 21.2121 13 19.98 13H5.02C3.78788 13 3.17183 13 2.70122 13.218C2.28726 13.4097 1.95071 13.7157 1.73979 14.092C1.5 14.5198 1.5 15.0799 1.5 16.2V17.8C1.5 18.9201 1.5 19.4802 1.73979 19.908C1.95071 20.2843 2.28726 20.5903 2.70122 20.782C3.17183 21 3.78788 21 5.02 21Z" stroke="url(#paint0_linear_1_109)" stroke-width="2" stroke-linecap="round" stroke-linejoin="round"/>
<defs>
<linearGradient id="paint0_linear_1_109" x1="-0.213021" y1="0.361111" x2="25.9374" y2="9.70476" gradientUnits="userSpaceOnUse">
<stop stop-color="#FFCC97"/>
<stop offset="1" stop-color="#D5D9C5"/>
</linearGradient>
</defs>
</svg>
