<svg width="32" height="24" viewBox="0 0 32 24" fill="none" xmlns="http://www.w3.org/2000/svg">
<path d="M26.15 23V15.6667M21.8 19.3333H30.5M16 15.6667H10.2C7.49754 15.6667 6.14631 15.6667 5.08044 16.0388C3.65927 16.535 2.53016 17.4867 1.9415 18.6847C1.5 19.5831 1.5 20.7221 1.5 23M21.075 1.35537C23.2006 2.08062 24.7 3.83716 24.7 5.88889C24.7 7.94062 23.2006 9.69715 21.075 10.4224M18.175 5.88889C18.175 8.58895 15.5783 10.7778 12.375 10.7778C9.17175 10.7778 6.575 8.58895 6.575 5.88889C6.575 3.18883 9.17175 1 12.375 1C15.5783 1 18.175 3.18883 18.175 5.88889Z" stroke="#C1C43D" stroke-width="2" stroke-linecap="round" stroke-linejoin="round"/>
</svg>
