<svg width="33" height="32" viewBox="0 0 33 32" fill="none" xmlns="http://www.w3.org/2000/svg">
<path d="M12.8542 13.5916C12.8542 13.1949 12.8542 12.9965 12.9336 12.845C13.0035 12.7117 13.1151 12.6034 13.2523 12.5355C13.4083 12.4583 13.6125 12.4583 14.0208 12.4583H18.9792C19.3875 12.4583 19.5917 12.4583 19.7477 12.5355C19.8849 12.6034 19.9964 12.7117 20.0663 12.845C20.1458 12.9965 20.1458 13.1949 20.1458 13.5916V18.4083C20.1458 18.805 20.1458 19.0033 20.0663 19.1548C19.9964 19.2881 19.8849 19.3965 19.7477 19.4644C19.5917 19.5416 19.3875 19.5416 18.9792 19.5416H14.0208C13.6125 19.5416 13.4083 19.5416 13.2523 19.4644C13.1151 19.3965 13.0035 19.2881 12.9336 19.1548C12.8542 19.0033 12.8542 18.805 12.8542 18.4083V13.5916Z" fill="#262020"/>
<path d="M23.7917 24.2166C23.7917 23.8199 23.7917 23.6215 23.8711 23.47C23.941 23.3367 24.0526 23.2284 24.1898 23.1605C24.3458 23.0833 24.55 23.0833 24.9583 23.0833H29.9167C30.325 23.0833 30.5292 23.0833 30.6852 23.1605C30.8224 23.2284 30.9339 23.3367 31.0038 23.47C31.0833 23.6215 31.0833 23.8199 31.0833 24.2166V29.0333C31.0833 29.43 31.0833 29.6283 31.0038 29.7798C30.9339 29.9131 30.8224 30.0215 30.6852 30.0894C30.5292 30.1666 30.325 30.1666 29.9167 30.1666H24.9583C24.55 30.1666 24.3458 30.1666 24.1898 30.0894C24.0526 30.0215 23.941 29.9131 23.8711 29.7798C23.7917 29.6283 23.7917 29.43 23.7917 29.0333V24.2166Z" fill="#262020"/>
<path d="M1.91666 2.96659C1.91666 2.56988 1.91666 2.37153 1.99613 2.22001C2.06604 2.08673 2.17759 1.97837 2.31479 1.91046C2.47077 1.83325 2.67495 1.83325 3.08332 1.83325H8.04166C8.45003 1.83325 8.65421 1.83325 8.81019 1.91046C8.94739 1.97837 9.05894 2.08673 9.12885 2.22001C9.20832 2.37153 9.20832 2.56988 9.20832 2.96659V7.78325C9.20832 8.17996 9.20832 8.37831 9.12885 8.52983C9.05894 8.66311 8.94739 8.77147 8.81019 8.83938C8.65421 8.91659 8.45003 8.91659 8.04166 8.91659H3.08332C2.67495 8.91659 2.47077 8.91659 2.31479 8.83938C2.17759 8.77147 2.06604 8.66311 1.99613 8.52983C1.91666 8.37831 1.91666 8.17996 1.91666 7.78325V2.96659Z" fill="#262020"/>
<path d="M15.0417 5.37492H25.6875C27.321 5.37492 28.1377 5.37492 28.7616 5.68373C29.3104 5.95537 29.7566 6.38882 30.0363 6.92195C30.3542 7.52803 30.3542 8.32144 30.3542 9.90825V11.7499C30.3542 13.0701 30.3542 13.7302 30.1321 14.2509C29.8361 14.9451 29.2683 15.4967 28.5536 15.7842C28.0176 15.9999 27.3382 15.9999 25.9792 15.9999M17.9583 26.6249H7.31249C5.679 26.6249 4.86226 26.6249 4.23835 26.3161C3.68954 26.0445 3.24335 25.611 2.96372 25.0779C2.64582 24.4718 2.64582 23.6784 2.64582 22.0916V20.2499C2.64582 18.9298 2.64582 18.2697 2.86784 17.749C3.16387 17.0547 3.73166 16.5032 4.44633 16.2156C4.98233 15.9999 5.66183 15.9999 7.02082 15.9999M14.0208 19.5416H18.9792C19.3875 19.5416 19.5917 19.5416 19.7477 19.4644C19.8849 19.3965 19.9964 19.2881 20.0663 19.1548C20.1458 19.0033 20.1458 18.805 20.1458 18.4083V13.5916C20.1458 13.1949 20.1458 12.9965 20.0663 12.845C19.9964 12.7117 19.8849 12.6034 19.7477 12.5355C19.5917 12.4583 19.3875 12.4583 18.9792 12.4583H14.0208C13.6125 12.4583 13.4083 12.4583 13.2523 12.5355C13.1151 12.6034 13.0035 12.7117 12.9336 12.845C12.8542 12.9965 12.8542 13.1949 12.8542 13.5916V18.4083C12.8542 18.805 12.8542 19.0033 12.9336 19.1548C13.0035 19.2881 13.1151 19.3965 13.2523 19.4644C13.4083 19.5416 13.6125 19.5416 14.0208 19.5416ZM24.9583 30.1666H29.9167C30.325 30.1666 30.5292 30.1666 30.6852 30.0894C30.8224 30.0215 30.9339 29.9131 31.0038 29.7798C31.0833 29.6283 31.0833 29.43 31.0833 29.0333V24.2166C31.0833 23.8199 31.0833 23.6215 31.0038 23.47C30.9339 23.3367 30.8224 23.2284 30.6852 23.1605C30.5292 23.0833 30.325 23.0833 29.9167 23.0833H24.9583C24.55 23.0833 24.3458 23.0833 24.1898 23.1605C24.0526 23.2284 23.941 23.3367 23.8711 23.47C23.7917 23.6215 23.7917 23.8199 23.7917 24.2166V29.0333C23.7917 29.43 23.7917 29.6283 23.8711 29.7798C23.941 29.9131 24.0526 30.0215 24.1898 30.0894C24.3458 30.1666 24.55 30.1666 24.9583 30.1666ZM3.08332 8.91659H8.04166C8.45003 8.91659 8.65421 8.91659 8.81019 8.83938C8.94739 8.77147 9.05894 8.66311 9.12885 8.52983C9.20832 8.37831 9.20832 8.17996 9.20832 7.78325V2.96659C9.20832 2.56988 9.20832 2.37153 9.12885 2.22001C9.05894 2.08673 8.94739 1.97837 8.81019 1.91046C8.65421 1.83325 8.45003 1.83325 8.04166 1.83325H3.08332C2.67495 1.83325 2.47077 1.83325 2.31479 1.91046C2.17759 1.97837 2.06604 2.08673 1.99613 2.22001C1.91666 2.37153 1.91666 2.56988 1.91666 2.96659V7.78325C1.91666 8.17996 1.91666 8.37831 1.99613 8.52983C2.06604 8.66311 2.17759 8.77147 2.31479 8.83938C2.47077 8.91659 2.67495 8.91659 3.08332 8.91659Z" stroke="url(#paint0_linear_9_6)" stroke-width="2" stroke-linecap="round" stroke-linejoin="round"/>
<defs>
<linearGradient id="paint0_linear_9_6" x1="-0.354394" y1="0.92816" x2="34.8093" y2="12.686" gradientUnits="userSpaceOnUse">
<stop stop-color="#FFCC97"/>
<stop offset="1" stop-color="#D5D9C5"/>
</linearGradient>
</defs>
</svg>
