<svg width="23" height="22" viewBox="0 0 23 22" fill="none" xmlns="http://www.w3.org/2000/svg">
<path d="M11.5 21C17.0228 21 21.5 16.5228 21.5 11C21.5 5.47715 17.0228 1 11.5 1C5.97715 1 1.5 5.47715 1.5 11C1.5 16.5228 5.97715 21 11.5 21Z" stroke="url(#paint0_linear_1_117)" stroke-width="2" stroke-linecap="round" stroke-linejoin="round"/>
<path d="M11.5 17C14.8137 17 17.5 14.3137 17.5 11C17.5 7.68629 14.8137 5 11.5 5C8.18629 5 5.5 7.68629 5.5 11C5.5 14.3137 8.18629 17 11.5 17Z" stroke="url(#paint1_linear_1_117)" stroke-width="2" stroke-linecap="round" stroke-linejoin="round"/>
<path d="M11.5 13C12.6046 13 13.5 12.1046 13.5 11C13.5 9.89543 12.6046 9 11.5 9C10.3954 9 9.5 9.89543 9.5 11C9.5 12.1046 10.3954 13 11.5 13Z" stroke="url(#paint2_linear_1_117)" stroke-width="2" stroke-linecap="round" stroke-linejoin="round"/>
<defs>
<linearGradient id="paint0_linear_1_117" x1="-0.0572916" y1="0.361111" x2="24.1923" y2="8.2379" gradientUnits="userSpaceOnUse">
<stop stop-color="#FFCC97"/>
<stop offset="1" stop-color="#D5D9C5"/>
</linearGradient>
<linearGradient id="paint1_linear_1_117" x1="-0.0572916" y1="0.361111" x2="24.1923" y2="8.2379" gradientUnits="userSpaceOnUse">
<stop stop-color="#FFCC97"/>
<stop offset="1" stop-color="#D5D9C5"/>
</linearGradient>
<linearGradient id="paint2_linear_1_117" x1="-0.0572916" y1="0.361111" x2="24.1923" y2="8.2379" gradientUnits="userSpaceOnUse">
<stop stop-color="#FFCC97"/>
<stop offset="1" stop-color="#D5D9C5"/>
</linearGradient>
</defs>
</svg>
