<svg width="34" height="36" viewBox="0 0 34 36" fill="none" xmlns="http://www.w3.org/2000/svg">
<path d="M12.75 17.25L15.5834 20.25L21.9584 13.5001M28.3334 18C28.3334 25.3627 20.7486 30.7176 17.9888 32.4224C17.6752 32.6161 17.5184 32.713 17.2971 32.7632C17.1253 32.8022 16.8747 32.8022 16.703 32.7632C16.4817 32.713 16.3248 32.6161 16.0112 32.4224C13.2515 30.7176 5.66669 25.3627 5.66669 18V10.8265C5.66669 9.62718 5.66669 9.02755 5.85193 8.51211C6.01558 8.05676 6.2815 7.65047 6.6267 7.32835C7.01747 6.96371 7.54773 6.75316 8.60826 6.33207L16.2041 3.31606C16.4987 3.19912 16.6459 3.14065 16.7974 3.11747C16.9318 3.09691 17.0683 3.09691 17.2026 3.11747C17.3541 3.14065 17.5014 3.19912 17.7959 3.31606L25.3918 6.33207C26.4523 6.75316 26.9826 6.96371 27.3733 7.32835C27.7185 7.65047 27.9845 8.05676 28.1481 8.51211C28.3334 9.02755 28.3334 9.62718 28.3334 10.8265V18Z" stroke="url(#paint0_linear_1_202)" stroke-width="2" stroke-linecap="round" stroke-linejoin="round"/>
<defs>
<linearGradient id="paint0_linear_1_202" x1="3.90176" y1="2.15361" x2="32.5242" y2="9.2514" gradientUnits="userSpaceOnUse">
<stop stop-color="#FFCC97"/>
<stop offset="1" stop-color="#D5D9C5"/>
</linearGradient>
</defs>
</svg>
